REM MD5 e8703b0282266a54a64100482d7e5d00
FILE "XI [sai] Super Play Collection - XI wa Futatabi Nagerareta - Special CD-ROM (Japan).bin" BINARY
  TRACK 01 MODE2/2352
    INDEX 01 00:00:00
  TRACK 02 AUDIO
    INDEX 00 10:06:49
    INDEX 01 10:08:49
  TRACK 03 AUDIO
    INDEX 00 11:07:49
    INDEX 01 11:09:49
  TRACK 04 AUDIO
    INDEX 00 12:06:43
    INDEX 01 12:08:43
  TRACK 05 AUDIO
    INDEX 00 13:07:23
    INDEX 01 13:09:23
REM LEADOUT 16:09:27
